<?xml version="1.0" standalone="no"?>
<!DOCTYPE svg PUBLIC "-//W3C//DTD SVG 20010904//EN"
 "http://www.w3.org/TR/2001/REC-SVG-20010904/DTD/svg10.dtd">
<svg version="1.0" xmlns="http://www.w3.org/2000/svg"
 width="564.000000pt" height="160.000000pt" viewBox="0 0 564.000000 160.000000"
 preserveAspectRatio="xMidYMid meet">

<g transform="translate(0.000000,160.000000) scale(0.100000,-0.100000)"
fill="#000000" stroke="none">
<path d="M50 780 l0 -760 2785 0 2785 0 0 760 0 760 -2785 0 -2785 0 0 -760z
m5513 718 c16 -12 17 -64 15 -723 l-3 -710 -65 -6 c-89 -9 -5269 -10 -5350 -1
l-65 7 0 715 0 714 25 7 c14 4 1240 7 2726 8 2146 1 2704 -2 2717 -11z"/>
<path d="M208 780 l2 -620 1310 0 1310 0 0 620 0 620 -1312 0 -1313 0 3 -620z
m568 196 c29 -22 5 -38 -63 -44 -32 -3 -61 -10 -65 -16 -4 -6 -8 -86 -8 -177
0 -156 -1 -167 -19 -172 -37 -9 -41 11 -41 190 l0 173 -39 0 c-73 0 -101 10
-101 36 l0 24 158 0 c122 0 163 -3 178 -14z m336 4 c58 -16 88 -60 88 -127 0
-51 -3 -58 -40 -96 l-40 -40 40 -64 c43 -70 46 -78 28 -86 -26 -9 -54 12 -98
76 -37 53 -51 66 -76 69 -49 6 -54 0 -54 -57 0 -69 -7 -85 -36 -85 l-24 0 0
210 0 210 88 0 c48 0 104 -5 124 -10z m411 -7 c18 -21 157 -362 157 -386 0
-22 -33 -22 -53 1 -8 9 -20 29 -26 45 -10 27 -12 27 -98 27 -49 0 -93 -4 -99
-8 -6 -4 -19 -21 -28 -39 -9 -18 -24 -36 -34 -41 -20 -11 -42 -5 -42 10 0 14
150 380 163 396 14 17 41 15 60 -5z m523 -6 c80 -42 128 -148 105 -233 -24
-91 -88 -149 -174 -159 -206 -23 -187 -44 -187 207 l0 211 113 -5 c77 -3 122
-10 143 -21z m504 -1 c0 -30 -20 -36 -122 -36 l-78 0 0 -60 0 -60 43 -1 c23 0
63 0 90 1 44 1 47 0 47 -23 0 -24 -3 -25 -82 -32 -46 -4 -86 -12 -90 -19 -4
-6 -8 -32 -8 -58 l0 -48 53 -1 c150 -3 142 -2 145 -30 4 -33 -6 -35 -150 -31
l-108 3 0 210 0 209 130 0 130 0 0 -24z"/>
<path d="M993 933 l-33 -4 0 -75 0 -74 58 0 c91 0 150 48 122 100 -18 34 -91
59 -147 53z"/>
<path d="M1482 884 c3 -3 -9 -40 -27 -83 l-33 -78 64 -2 c56 -2 64 0 64 16 0
26 -53 153 -64 153 -5 0 -7 -2 -4 -6z"/>
<path d="M1883 933 c-23 -4 -23 -7 -23 -154 l0 -149 48 0 c104 0 164 40 177
119 8 50 -8 111 -37 138 -20 18 -66 35 -128 47 -8 2 -25 1 -37 -1z"/>
<path d="M3234 979 c-5 -8 -10 -99 -12 -203 l-4 -188 128 3 c145 4 180 17 221
79 56 83 50 181 -16 250 -43 45 -83 58 -212 66 -76 6 -98 4 -105 -7z m199
-102 c41 -18 59 -52 55 -107 -3 -38 -8 -48 -38 -68 -25 -16 -45 -22 -75 -20
l-40 3 -3 103 -3 102 36 0 c20 0 50 -6 68 -13z"/>
<path d="M3700 981 c-12 -9 -15 -43 -15 -203 l0 -193 138 3 138 3 -3 37 -3 37
-78 3 -78 3 3 37 3 37 55 1 c82 1 80 0 80 44 l0 40 -70 0 -70 0 0 35 0 34 78
3 77 3 3 38 c3 36 2 37 -31 37 -19 0 -74 3 -123 6 -54 3 -95 1 -104 -5z"/>
<path d="M4045 980 c-4 -6 19 -52 49 -102 l56 -91 -60 -94 c-34 -52 -60 -96
-58 -98 2 -2 25 -5 52 -6 45 -3 51 0 80 33 17 20 38 46 47 59 l16 23 36 -57
37 -57 61 0 61 0 -23 38 c-12 20 -35 56 -51 79 -53 79 -53 82 7 178 30 48 52
91 49 96 -3 5 -26 9 -52 9 -45 -1 -48 -3 -82 -52 -19 -28 -39 -53 -45 -55 -5
-1 -26 21 -45 50 -34 49 -39 52 -82 55 -26 2 -49 -2 -53 -8z"/>
</g>
</svg>
